<mxfile host="app.diagrams.net" modified="2022-10-24T03:27:01.773Z" agent="5.0 (Macintosh)" etag="-fuzY6ft5I5bSuX4IJg-" version="20.4.2" type="github">
  <diagram id="n15voHSo6ANL4DWlX69a" name="第 1 页">
    <mxGraphModel dx="1577" dy="1020" grid="0" gridSize="10" guides="1" tooltips="1" connect="1" arrows="1" fold="1" page="1" pageScale="1" pageWidth="827" pageHeight="1169" math="0" shadow="0">
      <root>
        <mxCell id="0" />
        <mxCell id="1" parent="0" />
        <mxCell id="twiNA4CE5EisGoY67qtW-48" style="edgeStyle=orthogonalEdgeStyle;rounded=0;orthogonalLoop=1;jettySize=auto;html=1;exitX=1;exitY=0.5;exitDx=0;exitDy=0;entryX=0;entryY=0.5;entryDx=0;entryDy=0;" edge="1" parent="1" source="twiNA4CE5EisGoY67qtW-7" target="twiNA4CE5EisGoY67qtW-33">
          <mxGeometry relative="1" as="geometry" />
        </mxCell>
        <mxCell id="twiNA4CE5EisGoY67qtW-7" value="&lt;div&gt;AS-REQ&lt;/div&gt;&lt;div&gt;PA-ENC-TIMESTAMP(cname)&lt;/div&gt;" style="rounded=0;whiteSpace=wrap;html=1;" vertex="1" parent="1">
          <mxGeometry x="84" y="142" width="230" height="42" as="geometry" />
        </mxCell>
        <mxCell id="twiNA4CE5EisGoY67qtW-33" value="&lt;div&gt;AS-REP&lt;/div&gt;TICKET" style="rounded=0;whiteSpace=wrap;html=1;" vertex="1" parent="1">
          <mxGeometry x="440" y="148" width="230" height="30" as="geometry" />
        </mxCell>
        <mxCell id="twiNA4CE5EisGoY67qtW-49" style="edgeStyle=orthogonalEdgeStyle;rounded=0;orthogonalLoop=1;jettySize=auto;html=1;exitX=1;exitY=0.5;exitDx=0;exitDy=0;entryX=0;entryY=0.5;entryDx=0;entryDy=0;" edge="1" parent="1" source="twiNA4CE5EisGoY67qtW-36" target="twiNA4CE5EisGoY67qtW-41">
          <mxGeometry relative="1" as="geometry" />
        </mxCell>
        <mxCell id="twiNA4CE5EisGoY67qtW-36" value="&lt;div&gt;AS-REQ&lt;/div&gt;&lt;div&gt;&amp;nbsp; cname&lt;/div&gt;&lt;div&gt;不包含TIMESTAMP&lt;br&gt;&lt;/div&gt;" style="rounded=0;whiteSpace=wrap;html=1;" vertex="1" parent="1">
          <mxGeometry x="84" y="268" width="231.5" height="42" as="geometry" />
        </mxCell>
        <mxCell id="twiNA4CE5EisGoY67qtW-41" value="&lt;div&gt;AS-REP&lt;/div&gt;&lt;div&gt;TICKET&lt;br&gt;&lt;/div&gt;" style="rounded=0;whiteSpace=wrap;html=1;" vertex="1" parent="1">
          <mxGeometry x="440" y="274" width="230" height="30" as="geometry" />
        </mxCell>
        <mxCell id="twiNA4CE5EisGoY67qtW-51" style="edgeStyle=orthogonalEdgeStyle;rounded=0;orthogonalLoop=1;jettySize=auto;html=1;exitX=1;exitY=0.5;exitDx=0;exitDy=0;entryX=0;entryY=0.5;entryDx=0;entryDy=0;" edge="1" parent="1" source="twiNA4CE5EisGoY67qtW-44" target="twiNA4CE5EisGoY67qtW-50">
          <mxGeometry relative="1" as="geometry" />
        </mxCell>
        <mxCell id="twiNA4CE5EisGoY67qtW-44" value="&lt;div&gt;TGS-REQ&lt;/div&gt;" style="rounded=0;whiteSpace=wrap;html=1;" vertex="1" parent="1">
          <mxGeometry x="9" y="545" width="232" height="59" as="geometry" />
        </mxCell>
        <mxCell id="twiNA4CE5EisGoY67qtW-60" style="edgeStyle=orthogonalEdgeStyle;rounded=0;orthogonalLoop=1;jettySize=auto;html=1;exitX=1;exitY=0.5;exitDx=0;exitDy=0;entryX=0;entryY=0.5;entryDx=0;entryDy=0;fontSize=12;" edge="1" parent="1" source="twiNA4CE5EisGoY67qtW-47" target="twiNA4CE5EisGoY67qtW-59">
          <mxGeometry relative="1" as="geometry" />
        </mxCell>
        <mxCell id="twiNA4CE5EisGoY67qtW-47" value="预过滤&amp;nbsp;&amp;nbsp;&amp;nbsp;&amp;nbsp;&amp;nbsp;&amp;nbsp;&amp;nbsp;&amp;nbsp;&amp;nbsp;&amp;nbsp;&amp;nbsp;&amp;nbsp;&amp;nbsp;&amp;nbsp;&amp;nbsp;&amp;nbsp;&amp;nbsp;&amp;nbsp;&amp;nbsp;&amp;nbsp;&amp;nbsp;&amp;nbsp;&amp;nbsp;&amp;nbsp;&amp;nbsp;&amp;nbsp;&amp;nbsp;&amp;nbsp;&amp;nbsp;&amp;nbsp;&amp;nbsp;&amp;nbsp;&amp;nbsp;&amp;nbsp;&amp;nbsp;&amp;nbsp;&amp;nbsp;&amp;nbsp;&amp;nbsp;&amp;nbsp;&amp;nbsp;&amp;nbsp;&amp;nbsp;&amp;nbsp;&amp;nbsp;&amp;nbsp; &lt;br&gt;&lt;div&gt;TGS-REQ&lt;/div&gt;&lt;div&gt;&amp;nbsp;&amp;nbsp;&amp;nbsp;&amp;nbsp; AP-REQ&lt;/div&gt;&lt;div&gt;&amp;nbsp;&amp;nbsp;&amp;nbsp;&amp;nbsp;&amp;nbsp;&amp;nbsp;&amp;nbsp; TICKET&lt;/div&gt;&lt;div&gt;&amp;nbsp;&amp;nbsp; &amp;nbsp; &amp;nbsp; &amp;nbsp; &amp;nbsp; &amp;nbsp;&amp;nbsp; ETYPE&lt;br&gt;&lt;/div&gt;" style="rounded=0;whiteSpace=wrap;html=1;" vertex="1" parent="1">
          <mxGeometry x="9" y="837" width="218.5" height="78.25" as="geometry" />
        </mxCell>
        <mxCell id="twiNA4CE5EisGoY67qtW-57" style="edgeStyle=orthogonalEdgeStyle;rounded=0;orthogonalLoop=1;jettySize=auto;html=1;exitX=1;exitY=0.5;exitDx=0;exitDy=0;entryX=0;entryY=0.5;entryDx=0;entryDy=0;fontSize=12;" edge="1" parent="1" source="twiNA4CE5EisGoY67qtW-50" target="twiNA4CE5EisGoY67qtW-54">
          <mxGeometry relative="1" as="geometry" />
        </mxCell>
        <mxCell id="twiNA4CE5EisGoY67qtW-50" value="&lt;div&gt;预过滤 &amp;nbsp; &amp;nbsp; &amp;nbsp; &amp;nbsp; &amp;nbsp; &amp;nbsp; &amp;nbsp; &amp;nbsp; &amp;nbsp; &amp;nbsp; &amp;nbsp; &amp;nbsp; &amp;nbsp; &amp;nbsp; &amp;nbsp; &amp;nbsp; &amp;nbsp; &amp;nbsp; &amp;nbsp; &amp;nbsp; &amp;nbsp; &amp;nbsp; &amp;nbsp; &amp;nbsp; &lt;br&gt;&lt;/div&gt;&lt;div&gt;&amp;nbsp;TGS-REP&lt;/div&gt;&lt;div&gt;&amp;nbsp;&amp;nbsp;&amp;nbsp;&amp;nbsp;&amp;nbsp; ticket&lt;/div&gt;&lt;div&gt;&amp;nbsp;&amp;nbsp;&amp;nbsp;&amp;nbsp;&amp;nbsp;&amp;nbsp;&amp;nbsp;&amp;nbsp;&amp;nbsp;&amp;nbsp;&amp;nbsp; etype&lt;br&gt;&lt;/div&gt;" style="rounded=0;whiteSpace=wrap;html=1;" vertex="1" parent="1">
          <mxGeometry x="305" y="545" width="232" height="59" as="geometry" />
        </mxCell>
        <mxCell id="twiNA4CE5EisGoY67qtW-54" value="&lt;div&gt;Event ID 4769&lt;br&gt;&lt;/div&gt;&lt;div&gt;&amp;nbsp;&amp;nbsp;&amp;nbsp;&amp;nbsp;&amp;nbsp; EventData&lt;/div&gt;&lt;div&gt;&amp;nbsp;&amp;nbsp;&amp;nbsp;&amp;nbsp;&amp;nbsp;&amp;nbsp;&amp;nbsp;&amp;nbsp;&amp;nbsp;&amp;nbsp;&amp;nbsp;&amp;nbsp;&amp;nbsp;&amp;nbsp;&amp;nbsp;&amp;nbsp;&amp;nbsp;&amp;nbsp; ServiceName&lt;br&gt;&lt;/div&gt;" style="rounded=0;whiteSpace=wrap;html=1;" vertex="1" parent="1">
          <mxGeometry x="586" y="545" width="232" height="59" as="geometry" />
        </mxCell>
        <mxCell id="twiNA4CE5EisGoY67qtW-58" value="&lt;div&gt;Event ID&amp;nbsp; 4672 &amp;nbsp;&amp;nbsp;&amp;nbsp;&amp;nbsp;&amp;nbsp;&amp;nbsp; &lt;br&gt;&lt;/div&gt;&lt;div&gt;EventData&lt;/div&gt;&lt;div&gt;&amp;nbsp;&amp;nbsp;&amp;nbsp;&amp;nbsp;&amp;nbsp;&amp;nbsp;&amp;nbsp;&amp;nbsp;&amp;nbsp;&amp;nbsp;&amp;nbsp;&amp;nbsp;&amp;nbsp;&amp;nbsp;&amp;nbsp;&amp;nbsp; SubjectUserName&lt;/div&gt;&lt;div&gt;&amp;nbsp;&amp;nbsp;&amp;nbsp;&amp;nbsp;&amp;nbsp;&amp;nbsp;&amp;nbsp;&amp;nbsp;&amp;nbsp;&amp;nbsp;&amp;nbsp;&amp;nbsp; SubjectUserSid&lt;br&gt;&lt;/div&gt;" style="rounded=0;whiteSpace=wrap;html=1;" vertex="1" parent="1">
          <mxGeometry x="559" y="833" width="247" height="85" as="geometry" />
        </mxCell>
        <mxCell id="twiNA4CE5EisGoY67qtW-61" style="edgeStyle=orthogonalEdgeStyle;rounded=0;orthogonalLoop=1;jettySize=auto;html=1;exitX=1;exitY=0.5;exitDx=0;exitDy=0;fontSize=12;" edge="1" parent="1" source="twiNA4CE5EisGoY67qtW-59" target="twiNA4CE5EisGoY67qtW-58">
          <mxGeometry relative="1" as="geometry" />
        </mxCell>
        <mxCell id="twiNA4CE5EisGoY67qtW-59" value="&lt;div&gt;TGS-REP&lt;/div&gt;&lt;div&gt;&amp;nbsp;&amp;nbsp;&amp;nbsp;&amp;nbsp;&amp;nbsp;&amp;nbsp;&amp;nbsp; TICKET&lt;br&gt;&lt;/div&gt;" style="rounded=0;whiteSpace=wrap;html=1;" vertex="1" parent="1">
          <mxGeometry x="290" y="835" width="212" height="83" as="geometry" />
        </mxCell>
      </root>
    </mxGraphModel>
  </diagram>
</mxfile>
